<svg version="1" xmlns="http://www.w3.org/2000/svg" width="933.333" height="933.333" viewBox="0 0 700.000000 700.000000"><path d="M636.4 5.1c-2.2 1.1-6.9 4.6-10.4 7.9-3.5 3.3-6.7 6-7.1 6-.4 0-1.2-.7-2-1.6-.7-.9-3.2-2.9-5.6-4.5-14.9-10.3-35.3 1.4-32.9 18.8.6 4.6 4.3 11.2 8.4 15l2.6 2.4-13.8 13.8-13.8 13.9-3.4-3.7c-11-12.2-28.4-12.6-36.1-.9-2.3 3.5-2.8 5.2-2.8 10.7 0 7.8 1.8 12 8.1 18.8l4.4 4.7-4.4 4.6c-2.4 2.5-7.9 8.1-12.1 12.5-4.3 4.4-15.9 16.4-25.9 26.6-27.2 27.9-75.8 77.8-88.9 91.3l-11.5 11.9-10-6.6c-24.2-16.1-43.8-23.6-63.7-24.2-20.8-.8-37.4 5.6-51.3 19.7-6.2 6.2-12.6 17.6-18.8 33.3-11.4 29.5-25.4 44.6-46.1 50-6.5 1.7-11.4 2.2-28.8 3-12 .6-18.3 1.1-24 2-1.6.2-5.5.7-8.5 1-3 .4-9.5 1.5-14.5 2.6-4.9 1.2-9.9 2.2-11 2.5-5 .9-19.2 5.6-27.6 9-21.6 8.7-38.5 20.1-52.6 35.4-2.7 2.9-5.2 5.9-5.7 6.8-.5 1-1.2 1.9-1.6 2.2-4.8 3.7-17.5 30.5-19.6 41.3-.2 1-.5 2.6-.8 3.5-.5 1.9-1.4 7.5-2.6 16.7-.8 6.4-.6 25.5.5 34.5.7 6.4 3.9 22 6.2 30 16 57 57.3 111.9 111 147.6 6.1 4.1 11.4 7.4 11.6 7.4.3 0 3.1 1.5 6.4 3.3 20 11.3 50.3 21.6 71.8 24.3 10 1.3 39.3 1 47-.5 21.7-4.2 39.1-11.4 55.4-22.9 12.3-8.8 28.9-27.3 37-41.2 11.4-19.8 20.9-49.1 23.7-73 .3-3 .8-6.3 1-7.3.4-2.2 1.2-15.9 1.9-30.7.6-12.7 1.2-16.7 4-26 6.4-21 18.9-33.8 44.4-45.7 24.3-11.3 27.8-13.4 34.8-20.4 11.8-11.9 19.4-25.9 21.8-40.4 3.6-21.4-5.7-48.8-24.7-72.7l-2.1-2.7 5.6-5.8c3-3.2 7.2-7.6 9.3-9.8 2-2.2 11.6-12.3 21.3-22.4 9.7-10.1 19.4-20.2 21.6-22.6 7.7-8.1 41.1-43 53.1-55.4 6.6-6.9 15.9-16.6 20.7-21.6l8.5-9 4.3 4.3c5.9 5.8 11.8 8.5 18.9 8.6 14.4.1 24.5-14 19.5-27.1-1.1-2.7-4.2-7.2-7.1-10.4l-5.3-5.5 13.7-13.7 13.8-13.8 2.1 2.8c1.1 1.5 4.6 4.3 7.7 6.2 7.6 4.5 15.4 4.8 21.6.7 12.1-8 13-23.8 2-35.1l-3.9-4 6.4-7.3c14.8-16.7 14.1-20.7-8.2-42.2C651 4.7 645.1 1 636.4 5.1zM318.7 346.4c9.4 2.5 16.5 6.8 24.4 14.6 13.6 13.5 18.7 29.2 15.2 46.5-2.1 10.3-6.5 17.8-15.8 27-14.5 14.5-30.7 19.6-49 15.4-17.8-4.1-35.2-21.1-39.9-39-2-7.7-1.3-20.9 1.4-28.1 6-16 21.5-30.8 37.5-35.9 6.5-2 19.6-2.3 26.2-.5zM212.5 540l30.4 30.6-15.5 15.7-15.5 15.7-23-23.2C176.2 566 152 541.5 135 524.4l-30.9-31.1 15.5-15.8 15.5-15.8 23.5 23.9c12.9 13.1 37.2 37.6 53.9 54.4z"/></svg>